Coordinates
version=1
nRows=13
nColumns=36
inDegrees=yes

Units are S.I. units (second, meters, Newtons, ...)
If the header above contains a line with 'inDegrees', this indicates whether rotational values are in degrees (yes) or radians (no).

endheader
time	pelvis_tilt	pelvis_list	pelvis_rotation	pelvis_tx	pelvis_ty	pelvis_tz	hip_flexion_r	hip_adduction_r	hip_rotation_r	knee_angle_r	knee_angle_r_beta	ankle_angle_r	subtalar_angle_r	mtp_angle_r	hip_flexion_l	hip_adduction_l	hip_rotation_l	knee_angle_l	knee_angle_l_beta	ankle_angle_l	subtalar_angle_l	mtp_angle_l	lumbar_extension	lumbar_bending	lumbar_rotation	arm_flex_r	arm_add_r	arm_rot_r	elbow_flex_r	pro_sup_r	arm_flex_l	arm_add_l	arm_rot_l	elbow_flex_l	pro_sup_l
      3.41666670	     -7.57320758	     16.60728302	     25.51828555	      1.21414735	      0.78338489	     -0.03023997	     74.17839167	    -24.81395955	     24.56996766	     46.62802674	      0.81381259	      6.94077011	      7.56900500	     -7.49999986	     51.17105002	     23.45355019	    -11.92717524	     76.15562438	      1.32916639	     39.83937755	     -5.10470004	     -7.49999986	    -51.51889565	    -10.02698805	    -14.74639007	     70.58978239	     -3.26174854	     66.69136654	    116.95558327	     74.47924038	     80.50369806	     -6.60744303	     84.15659130	    119.12635256	     77.87780628
      3.43333330	     -8.06026247	     16.19947454	     25.59212700	      1.21973082	      0.78118402	     -0.02847896	     74.67825426	    -24.66504343	     24.43753177	     46.70741975	      0.81519826	      7.37078352	      7.95616194	     -7.49999986	     51.93379522	     23.15053605	    -11.93176505	     76.66007154	      1.33797065	     40.10940744	     -5.09113282	     -7.49999986	    -50.99791951	     -9.92169825	    -14.50045923	     70.41671466	     -3.24481707	     67.00094238	    116.95811906	     74.56594849	     80.06487958	     -6.95038093	     84.35954388	    119.13796165	     78.06890689
      3.45000000	     -8.63731229	     15.77327861	     25.77134005	      1.22006846	      0.78036346	     -0.02880269	     75.19541592	    -24.68396352	     24.15852509	     46.72292685	      0.81546891	      7.55763701	      8.28857804	     -7.49999986	     52.64102460	     22.94136775	    -11.85969381	     76.99769139	      1.34386323	     40.45415987	     -4.82772992	     -7.49999986	    -50.47382861	     -9.73365289	    -14.36409238	     70.16848372	     -3.26105496	     67.25622150	    116.66122094	     73.53427103	     79.56251402	     -7.06880630	     83.77862184	    118.91787773	     76.85423804
      3.46666670	     -9.17514672	     15.37024964	     25.82358108	      1.21996287	      0.77700639	     -0.02877206	     75.64162425	    -24.57665558	     23.95888809	     46.70082720	      0.81508320	      7.77867061	      8.70967451	     -7.49999986	     53.24575511	     22.68830721	    -11.80956197	     77.22879812	      1.34789680	     40.61292927	     -4.74281940	     -7.49999986	    -49.86785723	     -9.64951406	    -14.14422087	     69.87914535	     -3.25614698	     67.62144683	    116.48597504	     72.88875046	     79.21510640	     -7.10922812	     83.26118821	    119.09504057	     76.07172814
      3.48333330	     -9.77857449	     14.98296688	     25.87915475	      1.22068512	      0.77609866	     -0.02897269	     76.09514224	    -24.53923502	     23.70963323	     46.56171312	      0.81265520	      7.88750296	      9.14977828	     -7.49999986	     53.79584640	     22.51406683	    -11.73028028	     77.24720535	      1.34821807	     40.77660186	     -4.63649465	     -7.49999986	    -49.03646012	     -9.58507380	    -14.17053688	     69.48496552	     -2.90836558	     68.00832319	    115.86664650	     74.11490062	     78.52038725	     -7.44095115	     82.70691270	    119.31206878	     78.09417968
      3.50000000	     -9.94016107	     14.64914417	     25.88679021	      1.22106652	      0.78130720	     -0.02909181	     75.77666808	    -24.63440652	     23.10248668	     46.02677850	      0.80331883	      8.03932846	      9.67281139	     -7.49999987	     53.62279299	     22.34951158	    -11.42649482	     76.93788449	      1.34281940	     41.02680468	     -4.26615371	     -7.49999987	    -48.93704939	     -9.40713490	    -13.84081752	     69.29802235	     -2.97077489	     68.23188447	    115.62227241	     73.20690996	     78.14323071	     -7.64738408	     82.70840032	    119.04994917	     77.03192938
      3.51666670	     -9.99920050	     14.44442467	     25.79494643	      1.22179269	      0.78125053	     -0.02902424	     75.31569779	    -24.61294923	     22.64055011	     45.58488656	      0.79560636	      8.23975417	     10.18205349	     -7.49999987	     53.33092025	     22.18994055	    -11.21017454	     76.60068043	      1.33693408	     41.23190501	     -4.11006695	     -7.49999987	    -48.76756871	     -9.45687166	    -13.62480144	     68.95609807	     -3.01219636	     68.77251742	    115.77371996	     72.77978104	     77.82795964	     -7.75352916	     82.70820136	    118.96418748	     76.49718245
      3.53333330	     -9.85189164	     14.26946118	     25.69615749	      1.22220954	      0.78918064	     -0.02871567	     74.45338967	    -24.72285149	     21.94371790	     44.94594436	      0.78445471	      8.43996565	     10.73387396	     -7.49999987	     52.67787522	     22.07405335	    -10.89352192	     76.02929313	      1.32696149	     41.32570057	     -3.96790605	     -7.49999987	    -48.98072591	     -9.32653769	    -13.40400358	     68.65538867	     -3.03040058	     68.61010584	    115.66180418	     73.19779695	     77.46227601	     -7.96358101	     83.71493375	    118.89587448	     77.19978935
      3.55000000	     -9.94795329	     14.09680222	     25.71000767	      1.22309089	      0.78907901	     -0.02804279	     73.93346110	    -24.82098027	     21.42943338	     44.40762987	      0.77505935	      8.53950058	     11.09079664	     -7.49999987	     52.30917162	     21.97836755	    -10.72844073	     75.48750317	      1.31750547	     41.48241395	     -3.66334592	     -7.49999987	    -48.94020406	     -9.29025644	    -13.19108765	     68.73220467	     -2.96336919	     68.35444963	    116.37158643	     72.93678337	     77.45367572	     -8.02987267	     83.32677119	    119.08599946	     76.86084152
      3.56666670	    -10.14175833	     13.97487606	     25.68412066	      1.22901815	      0.79249114	     -0.02598520	     73.51629137	    -24.81264953	     21.12565257	     43.88670849	      0.76596756	      8.69162794	     11.15477185	     -7.49999987	     51.99029378	     21.91852885	    -10.59024613	     74.89315508	      1.30713214	     41.60781810	     -3.64062402	     -7.49999987	    -48.63276568	     -9.63310279	    -12.92221087	     68.35500691	     -2.61092640	     68.43369657	    116.61067920	     73.01864328	     77.33051726	     -7.98251371	     83.15174290	    119.39606494	     76.95596572
      3.58333330	     -9.98992882	     13.66506071	     25.70263465	      1.22394704	      0.79461894	     -0.02825138	     72.96957830	    -24.80235037	     20.54238001	     43.74036335	      0.76341336	      8.76732390	     11.33651403	     -7.49999987	     51.61917053	     21.68660599	    -10.28556185	     74.59534774	      1.30193442	     41.74174032	     -3.41675334	     -7.49999987	    -48.72096501	     -9.26545913	    -12.66013628	     68.56576639	     -2.75078147	     68.05531720	    117.64634910	     73.30860611	     77.49817068	     -7.83504296	     83.03247677	    120.29799726	     77.39789096
      3.60000000	    -10.00688915	     13.57899067	     25.69596969	      1.22954532	      0.79823927	     -0.02630950	     72.75168311	    -24.79180079	     20.37979047	     43.60600880	      0.76106843	      8.89871774	     11.26022469	     -7.49999987	     51.37388213	     21.63565818	    -10.21014840	     74.25131965	      1.29593000	     41.81352563	     -3.41611989	     -7.49999987	    -48.49135739	     -9.33088554	    -12.43573922	     68.42323663	     -2.75558576	     67.97495499	    117.62214195	     73.36334773	     77.54999326	     -7.87722531	     83.09934717	    120.26815850	     77.50541523
      3.61666670	     -9.62355295	     13.39803328	     25.78522502	      1.22975341	      0.80147998	     -0.02684459	     72.14600565	    -24.84468889	     19.93155634	     43.49099829	      0.75906112	      8.86563636	     11.06996870	     -7.49999987	     50.84851905	     21.48318196	     -9.87468454	     74.06175622	      1.29262150	     42.02148384	     -3.13603301	     -7.49999987	    -48.39293226	     -9.09477598	    -12.07955357	     68.37947311	     -3.25576847	     67.70113718	    117.48589362	     72.63688718	     77.96937593	     -7.09676834	     82.22023266	    120.14761773	     76.60707531
